HIERARCHY
ROOT Hips
{
	OFFSET 0.000000 0.000000 0.000000
	CHANNELS 6 Xposition Yposition Zposition Xrotation Yrotation Zrotation
	JOINT LeftUpLeg_virtual
	{
		OFFSET 0.000000 0.000000 0.000000
		CHANNELS 3 Xrotation Yrotation Zrotation
		JOINT LeftUpLeg
		{
			OFFSET 10.205400 -3.823500 0.155100
			CHANNELS 3 Xrotation Yrotation Zrotation
			JOINT LeftLeg
			{
				OFFSET 0.708757 -12.982077 0.567790
				CHANNELS 3 Xrotation Yrotation Zrotation
				JOINT LeftFoot
				{
					OFFSET -0.708756 -10.717838 -2.184338
					CHANNELS 3 Xrotation Yrotation Zrotation
					JOINT LeftToeBase
					{
						OFFSET 0.108149 -7.191104 7.560241
						CHANNELS 3 Xrotation Yrotation Zrotation
						JOINT LeftToe_End
						{
							OFFSET 0.070230 0.081724 4.490308
							CHANNELS 3 Xrotation Yrotation Zrotation
							End Site
							{
								OFFSET 0 0 0
							}
						}
					}
				}
			}
		}
	}
	JOINT RightUpLeg_virtual
	{
		OFFSET 0.000000 0.000000 0.000000
		CHANNELS 3 Xrotation Yrotation Zrotation
		JOINT RightUpLeg
		{
			OFFSET -10.205400 -3.823500 0.005500
			CHANNELS 3 Xrotation Yrotation Zrotation
			JOINT RightLeg
			{
				OFFSET -0.708756 -12.982134 0.610632
				CHANNELS 3 Xrotation Yrotation Zrotation
				JOINT RightFoot
				{
					OFFSET 0.708754 -10.717769 -1.945823
					CHANNELS 3 Xrotation Yrotation Zrotation
					JOINT RightToeBase
					{
						OFFSET -0.108140 -7.191069 7.372968
						CHANNELS 3 Xrotation Yrotation Zrotation
						JOINT RightToe_End
						{
							OFFSET -0.070227 0.081735 4.479403
							CHANNELS 3 Xrotation Yrotation Zrotation
							End Site
							{
								OFFSET 0 0 0
							}
						}
					}
				}
			}
		}
	}
	JOINT Spine_virtual
	{
		OFFSET 0.000000 0.000000 0.000000
		CHANNELS 3 Xrotation Yrotation Zrotation
		JOINT Spine
		{
			OFFSET 0.000000 6.876099 0.125700
			CHANNELS 3 Xrotation Yrotation Zrotation
			JOINT Spine1
			{
				OFFSET 0.000000 5.730043 0.104720
				CHANNELS 3 Xrotation Yrotation Zrotation
				JOINT Spine1_split
				{
					OFFSET 0.000000 5.730043 0.104720
					CHANNELS 3 Xrotation Yrotation Zrotation
					JOINT Spine2
					{
						OFFSET 0.000000 5.730043 0.104720
						CHANNELS 3 Xrotation Yrotation Zrotation
						JOINT Neck_virtual
						{
							OFFSET 0.000000 0.000000 0.000000
							CHANNELS 3 Xrotation Yrotation Zrotation
							JOINT Neck
							{
								OFFSET 0.000000 10.314075 0.188496
								CHANNELS 3 Xrotation Yrotation Zrotation
								JOINT Head
								{
									OFFSET 0.000000 7.643700 -2.377400
									CHANNELS 3 Xrotation Yrotation Zrotation
									JOINT HeadTop_End
									{
										OFFSET 0.000000 43.788605 -13.619600
										CHANNELS 3 Xrotation Yrotation Zrotation
										End Site
										{
											OFFSET 0 0 0
										}
									}
								}
							}
						}
						JOINT LeftShoulder_virtual
						{
							OFFSET 0.000000 0.000000 0.000000
							CHANNELS 3 Xrotation Yrotation Zrotation
							JOINT LeftShoulder
							{
								OFFSET 2.196100 4.412489 0.087492
								CHANNELS 3 Xrotation Yrotation Zrotation
								JOINT LeftShoulder_split
								{
									OFFSET 2.196100 4.412489 0.087492
									CHANNELS 3 Xrotation Yrotation Zrotation
									JOINT LeftArm
									{
										OFFSET 8.771219 -2.981674 -0.026999
										CHANNELS 3 Xrotation Yrotation Zrotation
										JOINT LeftForeArm
										{
											OFFSET 8.512804 0.000000 -0.000000
											CHANNELS 3 Xrotation Yrotation Zrotation
											JOINT LeftHand
											{
												OFFSET 18.484802 0.000000 -0.000000
												CHANNELS 3 Xrotation Yrotation Zrotation
												End Site
												{
													OFFSET 0 0 0
												}
											}
										}
									}
								}
							}
						}
						JOINT RightShoulder_virtual
						{
							OFFSET 0.000000 0.000000 0.000000
							CHANNELS 3 Xrotation Yrotation Zrotation
							JOINT RightShoulder
							{
								OFFSET -2.196100 4.412496 0.070690
								CHANNELS 3 Xrotation Yrotation Zrotation
								JOINT RightShoulder_split
								{
									OFFSET -2.196100 4.412496 0.070690
									CHANNELS 3 Xrotation Yrotation Zrotation
									JOINT RightArm
									{
										OFFSET -8.771282 -2.981682 -0.094208
										CHANNELS 3 Xrotation Yrotation Zrotation
										JOINT RightForeArm
										{
											OFFSET -8.494598 0.000000 0.000000
											CHANNELS 3 Xrotation Yrotation Zrotation
											JOINT RightHand
											{
												OFFSET -18.483803 0.000000 0.000001
												CHANNELS 3 Xrotation Yrotation Zrotation
												End Site
												{
													OFFSET 0 0 0
												}
											}
										}
									}
								}
							}
						}
					}
				}
			}
		}
	}
}
MOTION
Frames: 9
Frame Time: 0.03333333
0.321466 40.411118 1.270479 0.000000 0.000000 0.000000 -86.494558 -3.936571 -0.402019 4.497522 18.853634 17.159633 -0.176652 3.503717 4.749678 15.333737 29.038863 -28.466441 -4.794588 -0.028587 1.685096 0.000000 0.000000 0.000000 -87.975514 -0.474874 1.515960 11.538677 -20.257691 -11.312739 -3.756633 -1.499888 -8.017426 27.563636 -32.418666 35.743452 -12.078565 0.462591 -2.757291 0.000000 0.000000 0.000000 -86.665033 -6.062882 -3.426432 4.377555 1.502478 0.224678 16.646016 4.038846 -1.796565 0.492835 -0.346544 -0.098017 0.000000 0.000000 0.000000 14.962156 3.770068 -2.305143 -2.310696 1.142201 -4.115787 21.245013 4.810017 -8.727481 0.000000 0.000000 0.000000 16.810707 3.358484 -1.669208 -0.420874 7.038372 1.896937 -0.288308 -0.978480 -2.987523 15.737832 -51.474047 -39.654658 -0.385945 -80.939497 0.072499 0.000000 0.000000 0.000000 15.090053 3.540260 -2.064641 0.830486 2.140874 14.589849 1.351348 2.527255 1.743207 -34.020038 34.568308 62.228447 178.534970 53.690611 -179.979487 0.000000 0.000000 0.000000 
0.308789 40.351025 1.188169 0.000000 0.000000 0.000000 -86.383151 -4.354294 -0.736117 4.506034 18.492148 17.402227 -0.280798 3.875976 4.763009 15.267568 29.391346 -28.492313 -4.800260 -0.040926 1.511162 0.000000 0.000000 0.000000 -87.916084 -1.062438 1.003440 10.993872 -20.359962 -11.017405 -4.041818 -1.393231 -7.856963 28.183801 -31.807105 35.813848 -12.503022 0.458944 -2.650357 0.000000 0.000000 0.000000 -86.655061 -6.475119 -3.590400 3.726954 1.327911 0.193275 16.364515 3.834271 -1.676721 0.616339 -0.168982 -0.152512 0.000000 0.000000 0.000000 14.746624 3.618700 -2.207298 -1.507025 0.968198 -3.962245 21.825490 4.953987 -8.940423 0.000000 0.000000 0.000000 16.618086 3.151581 -1.569141 -0.339499 6.415534 1.608892 -0.367308 -1.089851 -2.798745 16.844566 -50.467571 -39.891699 -0.412583 -81.167359 -0.097845 0.000000 0.000000 0.000000 14.981257 3.388430 -1.913465 0.873927 1.555442 14.816569 0.969141 2.707140 1.884671 -34.329105 35.677835 62.048894 178.444949 54.865024 -179.900148 0.000000 0.000000 0.000000 
0.301215 40.296600 1.152821 0.000000 0.000000 0.000000 -86.106863 -4.738402 -1.188551 4.346885 18.070575 17.583311 -0.493222 4.204083 4.649431 15.886690 29.582615 -28.518545 -4.922288 -0.075075 1.369665 0.000000 0.000000 0.000000 -87.608494 -1.520844 0.434513 10.405895 -20.421755 -10.839456 -4.440619 -1.280084 -7.593465 29.509388 -30.952771 36.246806 -13.220785 0.455668 -2.566270 0.000000 0.000000 0.000000 -86.381614 -6.729322 -3.780076 3.031343 1.118081 0.236259 15.913719 3.486392 -1.502587 0.724119 0.067383 -0.160349 0.000000 0.000000 0.000000 14.301420 3.322066 -2.028816 -0.677811 0.778574 -3.709282 22.391536 4.819539 -9.038458 0.000000 0.000000 0.000000 16.230833 2.796375 -1.394746 -0.238671 5.748768 1.441719 -0.453264 -1.030464 -2.624727 17.953036 -49.358673 -40.689107 -0.535784 -81.563059 -0.419624 0.000000 0.000000 0.000000 14.703251 3.092271 -1.715181 0.889597 1.039362 14.912758 0.628907 3.003490 2.083422 -33.590030 36.955900 61.181536 178.340952 55.462273 -179.746263 0.000000 0.000000 0.000000 
0.299468 40.251507 1.138420 0.000000 0.000000 0.000000 -85.679286 -5.059396 -1.718555 4.046169 17.676641 17.673024 -0.789212 4.453131 4.416454 17.141859 29.565454 -28.604093 -5.013789 -0.119112 1.269716 0.000000 0.000000 0.000000 -87.137060 -1.876681 -0.179964 9.914004 -20.438897 -10.704240 -5.008094 -1.243053 -7.302234 30.996758 -30.214841 36.706932 -13.914163 0.450375 -2.498222 0.000000 0.000000 0.000000 -85.924770 -6.848826 -4.041596 2.384686 0.886810 0.360484 15.278681 3.017444 -1.274031 0.802227 0.289626 -0.211540 0.000000 0.000000 0.000000 13.628954 2.902102 -1.780156 0.019334 0.591884 -3.384425 22.792350 4.537635 -9.100115 0.000000 0.000000 0.000000 15.620245 2.327394 -1.160520 -0.126245 5.116517 1.356856 -0.522504 -0.955144 -2.513011 19.154434 -48.065957 -41.899307 -1.010051 -81.973656 -1.115427 0.000000 0.000000 0.000000 14.230855 2.676530 -1.478271 0.857803 0.598110 14.844383 0.380998 3.143855 2.299952 -31.856825 38.163825 59.530385 178.274795 55.333493 -179.561575 0.000000 0.000000 0.000000 
0.292885 40.221607 1.169607 0.000000 0.000000 0.000000 -85.220509 -5.273404 -2.240845 3.698990 17.389955 17.644344 -1.114586 4.646896 4.106761 18.758356 29.391704 -28.751517 -5.077210 -0.160519 1.226457 0.000000 0.000000 0.000000 -86.581199 -2.132086 -0.765778 9.610139 -20.410383 -10.545254 -5.675643 -1.335381 -7.080323 32.196829 -29.938850 36.906743 -14.482626 0.445830 -2.467364 0.000000 0.000000 0.000000 -85.361505 -6.858374 -4.347962 1.880801 0.659935 0.545028 14.473266 2.478360 -1.007966 0.874918 0.633052 -0.270748 0.000000 0.000000 0.000000 12.766099 2.404394 -1.482813 0.464228 0.430022 -3.069582 22.962538 4.203117 -9.214601 0.000000 0.000000 0.000000 14.803050 1.804054 -0.898307 -0.024261 4.518283 1.319330 -0.739102 -0.891486 -2.513860 20.464181 -46.565412 -43.319157 -2.011416 -82.219461 -2.297651 0.000000 0.000000 0.000000 13.551650 2.203154 -1.217711 0.744432 0.234431 14.700307 0.302534 3.040060 2.453622 -29.436971 39.043882 57.291736 178.294247 54.625742 -179.400956 0.000000 0.000000 0.000000 
0.290040 40.220680 1.193413 0.000000 0.000000 0.000000 -84.783446 -5.412265 -2.695762 3.433743 17.245949 17.502317 -1.426420 4.804278 3.793925 20.429625 29.158556 -28.970080 -5.182266 -0.188638 1.261422 0.000000 0.000000 0.000000 -86.058061 -2.373934 -1.325258 9.523799 -20.375223 -10.346829 -6.273283 -1.547110 -6.945610 33.025501 -30.116626 36.886389 -14.990942 0.452639 -2.488523 0.000000 0.000000 0.000000 -84.814571 -6.855875 -4.697949 1.567612 0.452638 0.742167 13.525838 1.923590 -0.741831 0.937232 0.901996 -0.390196 0.000000 0.000000 0.000000 11.774138 1.888899 -1.173817 0.596793 0.332707 -2.818396 22.877237 3.939015 -9.412582 0.000000 0.000000 0.000000 13.819220 1.290364 -0.642007 0.052029 3.968789 1.259121 -0.997996 -0.920349 -2.624964 21.757996 -44.904939 -44.753244 -3.414971 -82.257293 -3.798847 0.000000 0.000000 0.000000 12.713918 1.733116 -0.961169 0.534907 -0.047851 14.555714 0.392412 2.748706 2.741719 -26.690740 39.496675 54.844947 178.372494 53.787798 -179.257113 0.000000 0.000000 0.000000 
0.280237 40.239822 1.221506 0.000000 0.000000 0.000000 -84.455685 -5.519165 -3.049096 3.370636 17.293190 17.273079 -1.655954 4.950729 3.531078 21.830132 28.930943 -29.253355 -5.386417 -0.196100 1.352948 0.000000 0.000000 0.000000 -85.690870 -2.598256 -1.767650 9.584558 -20.340237 -10.184430 -6.710283 -1.708625 -6.863856 33.618505 -30.453799 36.904554 -15.579924 0.475887 -2.570403 0.000000 0.000000 0.000000 -84.389494 -6.889666 -5.032788 1.454823 0.270006 0.886436 12.462905 1.402709 -0.510607 1.034266 1.179685 -0.485695 0.000000 0.000000 0.000000 10.720305 1.417949 -0.895922 0.462420 0.314331 -2.678876 22.608636 3.826864 -9.682982 0.000000 0.000000 0.000000 12.716612 0.847778 -0.422361 0.094807 3.520805 1.107200 -1.256555 -0.977069 -2.780140 22.907495 -43.222639 -46.027965 -4.628946 -82.082427 -5.028676 0.000000 0.000000 0.000000 11.748465 1.319542 -0.748528 0.241724 -0.246285 14.456435 0.625361 2.479091 3.104640 -23.984401 39.497140 52.645380 178.472734 53.201580 -179.119334 0.000000 0.000000 0.000000 
0.263837 40.278450 1.233959 0.000000 0.000000 0.000000 -84.289835 -5.642691 -3.299667 3.506686 17.560435 17.029444 -1.801275 5.102332 3.358225 22.710374 28.790002 -29.499932 -5.684205 -0.183465 1.489085 0.000000 0.000000 0.000000 -85.508299 -2.826045 -2.096808 9.695629 -20.347849 -10.088275 -6.897288 -1.734617 -6.796704 34.115846 -30.698968 37.120640 -16.221658 0.515117 -2.693562 0.000000 0.000000 0.000000 -84.143791 -7.005531 -5.327902 1.505130 0.108322 0.947881 11.300802 0.953881 -0.338668 1.009873 1.409250 -0.586439 0.000000 0.000000 0.000000 9.621147 1.021577 -0.673090 0.164017 0.359929 -2.633042 22.275617 3.859874 -9.936769 0.000000 0.000000 0.000000 11.541647 0.501927 -0.251195 0.089728 3.194829 0.902371 -1.429515 -1.048387 -2.964337 23.794578 -41.670024 -47.090357 -5.294289 -81.780450 -5.633219 0.000000 0.000000 0.000000 10.700855 0.991762 -0.602497 -0.120538 -0.354734 14.416130 0.984371 2.361154 3.364671 -21.533715 39.153954 50.968094 178.573206 53.035633 -178.999574 0.000000 0.000000 0.000000 
0.239034 40.321568 1.220869 0.000000 0.000000 0.000000 -84.275163 -5.805814 -3.461429 3.806862 18.040941 16.833862 -1.875924 5.256809 3.287310 22.967906 28.747901 -29.659226 -5.939811 -0.154389 1.628196 0.000000 0.000000 0.000000 -85.515184 -3.035829 -2.296812 9.858417 -20.441851 -10.021896 -6.897490 -1.649431 -6.727076 34.586329 -30.782221 37.457263 -16.687335 0.554505 -2.796002 0.000000 0.000000 0.000000 -84.117700 -7.197857 -5.572065 1.642251 -0.046618 0.914029 10.067929 0.587645 -0.232327 0.936038 1.533704 -0.599371 0.000000 0.000000 0.000000 8.503245 0.714335 -0.514048 -0.197345 0.435011 -2.626259 21.946848 3.990591 -10.049399 0.000000 0.000000 0.000000 10.326096 0.252663 -0.128068 0.044467 3.039556 0.662860 -1.465846 -1.109419 -3.175752 24.414856 -40.352857 -47.972459 -5.229373 -81.487148 -5.472843 0.000000 0.000000 0.000000 9.620755 0.740156 -0.526604 -0.514250 -0.356050 14.371514 1.365118 2.349581 3.506560 -19.284044 38.630922 49.804353 178.648857 53.338962 -178.903705 0.000000 0.000000 0.000000 
